<svg xmlns="http://www.w3.org/2000/svg" viewBox="0 0 701.47 161.63" width="701" height="162"><g transform="translate(-15.44,-10.87)"><path d="M15.44 71.81 L88.77 112.52 L72.62 62.83 Z M184.98 73.10 L101.73 83.27 L144.00 113.98 Z M151.84 172.51 L116.44 96.47 L100.30 146.17 Z M47.06 171.71 L108.44 114.55 L56.19 114.55 Z" fill="#0A4A3A"/><path d="M84.62 93.19 L126.89 62.47 L100.68 10.87 Z" fill="#FF6A2B"/></g><g transform="translate(201.86,38.15)"><path d="M6.008295186124005 48.490476443306676V-0.14137165143820596H28.48638776479969L36.827315199654194 20.993690238574466Q37.39280180540704 22.266035101518373 38.06431714973854 24.245238221653338Q38.73583249407005 26.224441341788307 39.40734783840156 28.309673200501933Q40.078863182733066 30.394905059215557 40.64434978848591 32.02067905075499H41.13915056851965Q41.56326552283429 30.53627671065377 42.234780867165796 28.557073590518804Q42.906296211497306 26.577870470383836 43.64849738154791 24.56332443738932Q44.390698551598526 22.5487784043948 44.95618515735138 20.993690238574466L53.29711259220588 -0.14137165143820596H75.13903273940961V48.490476443306676H60.789810118431106V23.39700831302407Q60.789810118431106 21.912605972922844 60.825153031290654 20.07477450422609Q60.86049594415021 18.236943035529336 60.93118176986931 16.469797392551687Q61.00186759558842 14.702651749574038 61.00186759558842 13.430306886630134H60.43638098983558Q60.01226603552094 14.773337575293148 59.37609360404899 16.6111690439899Q58.739921172577034 18.449000512686652 58.139091653964634 20.251489068523853Q57.538262135352234 22.053977624361057 56.97277552959938 23.39700831302407L46.794016626048126 48.490476443306676H33.646453042294425L23.397008313024063 23.39700831302407Q22.690150055833005 21.559176844327315 22.018634711501498 19.650659549911452Q21.34711936716999 17.742142255495594 20.816975674276698 16.081025351096603Q20.286831981383404 14.419908446697612 19.933402852787875 13.430306886630134H19.367916247035026Q19.438602072754133 14.419908446697612 19.473944985613684 16.04568243823705Q19.50928789847324 17.671456429776487 19.54463081133279 19.57997372419235Q19.579973724192342 21.488491018608208 19.579973724192342 23.39700831302407V48.490476443306676ZM105.39256614718695 49.33870635193595Q98.32398357527636 49.33870635193595 93.34063286207939 47.43018905752008Q88.35728214888242 45.52167176310422 85.7419065972755 41.52792260997474Q83.12653104566859 37.53417345684525 83.12653104566859 31.17244914212572V30.112161756339134H96.83958123517513V31.455192445002144Q96.83958123517513 35.20154120811476 98.96015600674832 36.93334393823285Q101.0807307783215 38.66514666835095 104.89776536715321 38.66514666835095Q109.20960073601867 38.66514666835095 111.40086133331096 36.54457189677777Q113.59212193060324 34.42399712520459 113.59212193060324 29.758732627743605V-0.14137165143820596H127.94134455158175V29.193246021990756Q127.94134455158175 36.26182859390135 125.21994026139618 40.71503561420502Q122.49853597121059 45.168242634508694 117.47984234515407 47.25347449322232Q112.46114871909755 49.33870635193595 105.39256614718695 49.33870635193595ZM160.52751020808958 48.490476443306676V-0.14137165143820596H183.00560278676528L191.3465302216198 20.993690238574466Q191.9120168273726 22.266035101518373 192.58353217170412 24.245238221653338Q193.25504751603563 26.224441341788307 193.92656286036714 28.309673200501933Q194.59807820469865 30.394905059215557 195.16356481045148 32.02067905075499H195.65836559048523Q196.08248054479986 30.53627671065377 196.75399588913137 28.557073590518804Q197.42551123346288 26.577870470383836 198.1677124035135 24.56332443738932Q198.9099135735641 22.5487784043948 199.47540017931695 20.993690238574466L207.81632761417146 -0.14137165143820596H229.6582477613752V48.490476443306676H215.30902514039667V23.39700831302407Q215.30902514039667 21.912605972922844 215.34436805325623 20.07477450422609Q215.3797109661158 18.236943035529336 215.4503967918349 16.469797392551687Q215.521082617554 14.702651749574038 215.521082617554 13.430306886630134H214.95559601180116Q214.53148105748653 14.773337575293148 213.89530862601458 16.6111690439899Q213.2591361945426 18.449000512686652 212.6583066759302 20.251489068523853Q212.0574771573178 22.053977624361057 211.49199055156495 23.39700831302407L201.3132316480137 48.490476443306676H188.16566806426L177.91622333498964 23.39700831302407Q177.2093650777986 21.559176844327315 176.53784973346708 19.650659549911452Q175.86633438913557 17.742142255495594 175.33619069624228 16.081025351096603Q174.806047003349 14.419908446697612 174.45261787475346 13.430306886630134H173.8871312690006Q173.9578170947197 14.419908446697612 173.99316000757926 16.04568243823705Q174.02850292043883 17.671456429776487 174.0638458332984 19.57997372419235Q174.09918874615792 21.488491018608208 174.09918874615792 23.39700831302407V48.490476443306676ZM241.67483813362318 48.490476443306676V-0.14137165143820596H256.0240607546017V48.490476443306676ZM268.04065112684975 48.490476443306676V-0.14137165143820596H280.905471407727L306.06962536372873 22.5487784043948Q306.7057977952007 23.114265010147644 307.73074226812776 24.10386657021513Q308.7556867410548 25.093468130282613 309.8513170397009 26.153755516069204Q310.94694733834706 27.21404290185579 311.7244914212572 28.132958636204165H312.36066385272915Q312.36066385272915 26.86061377326026 312.3253209398696 24.952096478844396Q312.28997802701 23.043579184428538 312.28997802701 21.559176844327315V-0.14137165143820596H325.86165656507836V48.490476443306676H313.2088937613584L288.6102264111096 26.295127167507413Q286.913766593851 24.810724827406187 285.0759351251543 22.972893358709435Q283.2381036564575 21.13506189001268 282.1071304449518 20.07477450422609H281.54164383919897Q281.54164383919897 20.993690238574466 281.57698675205853 23.043579184428538Q281.6123296649181 25.093468130282613 281.6123296649181 27.426100379013107V48.490476443306676ZM337.8782469373264 48.490476443306676V-0.14137165143820596H352.2274695583049V48.490476443306676ZM364.2440599305529 48.490476443306676V-0.14137165143820596H377.1088802114302L402.2730341674319 22.5487784043948Q402.90920659890384 23.114265010147644 403.9341510718309 24.10386657021513Q404.95909554475793 25.093468130282613 406.05472584340407 26.153755516069204Q407.1503561420502 27.21404290185579 407.92790022496035 28.132958636204165H408.5640726564323Q408.5640726564323 26.86061377326026 408.52872974357274 24.952096478844396Q408.4933868307132 23.043579184428538 408.4933868307132 21.559176844327315V-0.14137165143820596H422.0650653687815V48.490476443306676H409.41230256506157L384.81363521481273 26.295127167507413Q383.11717539755415 24.810724827406187 381.27934392885743 22.972893358709435Q379.44151246016065 21.13506189001268 378.31053924865495 20.07477450422609H377.7450526429021Q377.7450526429021 20.993690238574466 377.7803955557617 23.043579184428538Q377.81573846862125 25.093468130282613 377.81573846862125 27.426100379013107V48.490476443306676ZM461.50775612004264 49.33870635193595Q446.73441854474953 49.33870635193595 439.347749757103 43.11835368865462Q431.96108096945636 36.898001025373304 431.96108096945636 24.174552395934235Q431.96108096945636 15.904310786798838 435.81345847114767 10.284787642129917Q439.6658359728389 4.665264497460996 446.94647602190685 1.8378314686967592Q454.2271160709747 -0.9896015600674772 464.405874974526 -0.9896015600674772Q470.6969134635264 -0.9896015600674772 476.10437913103806 0.17671456429777166Q481.51184479854965 1.3430306886630206 485.5762797773982 3.6049771116744083Q489.64071475624684 5.866923534685796 491.8673182663987 9.295186082062433Q494.0939217765505 12.72344862943907 494.0939217765505 17.31802730118096H480.0981282841675Q480.0981282841675 15.338824181045993 478.86112633408317 13.889764753804322Q477.62412438399883 12.44070532656265 475.5035496124257 11.521789592214272Q473.38297484085246 10.602873857865895 470.69691346352647 10.143415990691707Q468.01085208620043 9.68395812351752 465.04204740599795 9.68395812351752Q460.80089786285157 9.68395812351752 457.4079782283345 10.532188032146792Q454.0150585938174 11.380417940776063 451.6117405193678 13.112220670894157Q449.2084224449182 14.844023401012251 447.97142049483386 17.388713126900065Q446.73441854474953 19.93340285278788 446.73441854474953 23.326322487304964V25.022782304563506Q446.73441854474953 29.829418453462708 448.7136216648845 32.83356604652471Q450.69282478501947 35.83771363958671 454.5098593738512 37.251430153968826Q458.3268939626829 38.66514666835095 463.8403883687732 38.66514666835095Q468.8590819948297 38.66514666835095 472.49940201936363 37.78157384686213Q476.13972204389756 36.898001025373304 478.08358225117297 35.13085538239565Q480.02744245844843 33.363709739418006 480.02744245844843 31.031077490687508V30.606962536372873H463.062844285863V21.347119367169995H494.1646076022696V48.490476443306676H485.75299434169597L484.409963653033 42.69423873433999Q481.65321644998784 44.95618515735138 478.1542680768921 46.440587497452604Q474.65531970379635 47.92498983755383 470.4848559863691 48.63184809474489Q466.31439226894184 49.33870635193595 461.50775612004264 49.33870635193595Z" fill="#0A4A3A"/><path d="M13.656501528931267 85.68253050367146Q7.775440829101654 85.68253050367146 4.8349104791868465 83.19438943835893Q1.8943801292720392 80.70624837304639 1.8943801292720392 75.64514325155841Q1.8943801292720392 72.33704660790426 3.392919634517085 70.08923735003668Q4.891459139762131 67.84142809216911 7.73302933367019 66.71045488066342Q10.574599527578249 65.57948166915773 14.53300576784818 65.57948166915773Q17.10596982402364 65.57948166915773 19.226544595596817 66.01773378861618Q21.347119367169995 66.45598590807464 22.888070367846503 67.34662731213537Q24.429021368523014 68.2372687161961 25.263114112008463 69.59443657000293Q26.097206855493912 70.95160442380977 26.097206855493912 72.78943589250653H21.91260597292284Q21.91260597292284 71.7715600021514 21.31884503688235 71.06470174496035Q20.725084100841862 70.35784348776929 19.707208210486733 69.94786569859846Q18.68933232013161 69.53788790942765 17.40285029204388 69.35410476255798Q16.116368263956154 69.17032161568831 14.702651749574036 69.17032161568831Q12.893094611164923 69.17032161568831 11.352143610488413 69.52375074428383Q9.811192609811904 69.87717987287937 8.680219398306209 70.62644962550189Q7.549246186800514 71.37571937812442 6.9272109204723815 72.53496691991775Q6.30517565414425 73.69421446171108 6.30517565414425 75.27757695781906V75.95616088472248Q6.30517565414425 78.16155864715859 7.26650288392409 79.5045893358216Q8.22783011370393 80.84762002448461 9.99497575668158 81.46965529081274Q11.762121399659229 82.09169055714086 14.16543947410883 82.09169055714086Q16.823226521147213 82.09169055714086 18.533823503549577 81.61102694225094Q20.24442048595194 81.13036332736102 21.07851322943739 80.22558475815647Q21.91260597292284 79.32080618895192 21.91260597292284 78.1050099865833V77.87881534428216H14.05234215295826V74.48589570976507H26.125481185781556V85.34323854021974H23.467694138743173L23.015304854140894 82.79854881433192Q21.969154633498125 83.81642470468705 20.513026623684542 84.452597136159Q19.05689861387096 85.08876956763096 17.318027301180955 85.38565003565121Q15.57915598849095 85.68253050367146 13.656501528931267 85.68253050367146ZM50.95034317833156 85.68253050367146Q47.07675992892455 85.68253050367146 44.27760123044796 84.50914579673429Q41.47844253197136 83.33576108979713 39.9657658615825 81.08795183192956Q38.45308919119363 78.840142574062 38.45308919119363 75.61686892127076Q38.45308919119363 72.39359526847954 39.9657658615825 70.1599231757558Q41.47844253197136 67.92625108303204 44.27760123044796 66.75286637609489Q47.07675992892455 65.57948166915773 50.95034317833156 65.57948166915773Q54.82392642773856 65.57948166915773 57.62308512621516 66.75286637609489Q60.422243824691755 67.92625108303204 61.93492049508062 70.1599231757558Q63.44759716546949 72.39359526847954 63.44759716546949 75.61686892127076Q63.44759716546949 78.840142574062 61.93492049508062 81.08795183192956Q60.422243824691755 83.33576108979713 57.62308512621516 84.50914579673429Q54.82392642773856 85.68253050367146 50.95034317833156 85.68253050367146ZM50.95034317833156 82.09169055714086Q52.70335165616538 82.09169055714086 54.173616831122786 81.69584993311388Q55.64388200608019 81.30000930908689 56.73244372215442 80.53660239132054Q57.82100543822865 79.7731954735542 58.428903539412964 78.61394793176086Q59.036801640597275 77.45470038996753 59.036801640597275 75.92788655443483V75.27757695781906Q59.036801640597275 73.75076312228637 58.428903539412964 72.60565274563686Q57.82100543822865 71.46054236898733 56.73244372215442 70.69713545122099Q55.64388200608019 69.93372853345466 54.173616831122786 69.55202507457147Q52.70335165616538 69.17032161568831 50.95034317833156 69.17032161568831Q49.197334700497734 69.17032161568831 47.72706952554033 69.55202507457147Q46.256804350582925 69.93372853345466 45.168242634508694 70.69713545122099Q44.07968091843446 71.46054236898733 43.48591998239397 72.60565274563686Q42.892159046353484 73.75076312228637 42.892159046353484 75.27757695781906V75.92788655443483Q42.892159046353484 77.45470038996753 43.48591998239397 78.61394793176086Q44.07968091843446 79.7731954735542 45.168242634508694 80.53660239132054Q46.256804350582925 81.30000930908689 47.72706952554033 81.69584993311388Q49.197334700497734 82.09169055714086 50.95034317833156 82.09169055714086ZM76.00139981318272 85.34323854021974V65.91877363260943H80.29909801690435V81.55447828167567H92.62670602231643V85.34323854021974ZM104.13435844938688 85.34323854021974V65.91877363260943H114.48276333466399Q118.04532895090692 65.91877363260943 120.60415584193856 67.0356096789713Q123.16298273297019 68.15244572533318 124.53428775192086 70.31543199233782Q125.90559277087151 72.47841825934246 125.90559277087151 75.64514325155841Q125.90559277087151 78.78359391348671 124.53428775192086 80.94658018049135Q123.16298273297019 83.109566447496 120.60415584193856 84.22640249385788Q118.04532895090692 85.34323854021974 114.48276333466399 85.34323854021974ZM108.43205665310852 81.75239859368916H114.25656869236285Q115.81165685818317 81.75239859368916 117.12641321655855 81.3848322999498Q118.44116957493392 81.01726600621046 119.41663396985759 80.29627058387558Q120.39209836478125 79.5752751615407 120.92931064024646 78.48671344546648Q121.46652291571165 77.39815172939224 121.46652291571165 75.95616088472248V75.3058512881067Q121.46652291571165 73.86386044343693 120.92931064024646 72.7752987273627Q120.39209836478125 71.68673701128847 119.41663396985759 70.96574158895359Q118.44116957493392 70.24474616661871 117.12641321655855 69.87717987287937Q115.81165685818317 69.50961357914001 114.25656869236285 69.50961357914001H108.43205665310852ZM164.72624825580448 85.68253050367146Q161.30505429099975 85.68253050367146 158.98655920741308 85.01808374191185Q156.6680641238264 84.35363698015226 155.49467941688926 83.06715495206453Q154.3212947099521 81.78067292397681 154.3212947099521 79.97111578556769Q154.3212947099521 78.18983297744623 155.40985642602632 76.95989960993379Q156.49841814210055 75.72996624242134 158.1948779593591 75.27757695781906V75.16447963666849Q156.83771010555225 74.71209035206621 155.89052004091621 73.62352863599199Q154.9433299762802 72.53496691991775 154.9433299762802 71.0364274146727Q154.9433299762802 69.3682419277018 156.1308518483612 68.13830856018936Q157.31837372044217 66.90837519267691 159.58032014345355 66.24392843091732Q161.84226656646496 65.57948166915773 165.03726588896853 65.57948166915773Q168.1474422206092 65.57948166915773 170.38111431333294 66.24392843091732Q172.6147864060567 66.90837519267691 173.83058260842535 68.09589706475789Q175.04637881079395 69.28341893683887 175.04637881079395 70.83850710265921V71.40399370841206H171.1445212310993V71.09297607524799Q171.1445212310993 70.301294827194 170.38111431333294 69.76408255172879Q169.6177073955666 69.22687027626358 168.28881387204743 68.94412697338717Q166.95992034852824 68.66138367051074 165.29173486155733 68.66138367051074Q163.96284133803815 68.66138367051074 162.81773096138863 68.8310296522366Q161.6726205847391 69.00067563396246 160.810253510966 69.33996759741416Q159.94788643719292 69.67925956086587 159.467222822303 70.20233467118726Q158.98655920741308 70.72540978150863 158.98655920741308 71.46054236898733Q158.98655920741308 72.39359526847954 159.5379086480221 72.94494470908856Q160.08925808863114 73.49629414969759 161.00817382297953 73.73662595714255Q161.9270895573279 73.97695776458751 163.0015141082583 73.97695776458751H166.56407972450123V76.83266512363939H162.66222214480658Q161.5312489333009 76.83266512363939 160.54164737323342 77.08713409622817Q159.55204581316593 77.34160306881695 158.95828487712544 77.93536400485743Q158.36452394108494 78.52912494089793 158.36452394108494 79.5752751615407Q158.36452394108494 80.59315105189583 159.1279308588513 81.27173497879924Q159.89133777661763 81.95031890570266 161.36160295157504 82.27547370401055Q162.83186812653244 82.60062850231843 164.95244289810563 82.60062850231843Q167.15784066054172 82.60062850231843 168.5291456794924 82.21892504343526Q169.90045069844302 81.83722158455208 170.52248596477116 81.13036332736102Q171.1445212310993 80.42350507016997 171.1445212310993 79.46217784039013V73.97695776458751H178.52412143617397V76.83266512363939H175.04637881079395V79.34908051923956Q175.04637881079395 81.35655796966216 173.92954276443209 82.78441164918812Q172.81270671807022 84.21226532871405 170.536623129915 84.94739791619276Q168.26053954175978 85.68253050367146 164.72624825580448 85.68253050367146ZM206.45915976036463 85.34323854021974V65.91877363260943H216.80756464564175Q220.3701302618847 65.91877363260943 222.92895715291633 67.0356096789713Q225.48778404394795 68.15244572533318 226.8590890628986 70.31543199233782Q228.23039408184925 72.47841825934246 228.23039408184925 75.64514325155841Q228.23039408184925 78.78359391348671 226.8590890628986 80.94658018049135Q225.48778404394795 83.109566447496 222.92895715291633 84.22640249385788Q220.3701302618847 85.34323854021974 216.80756464564175 85.34323854021974ZM210.75685796408627 81.75239859368916H216.5813700033406Q218.13645816916093 81.75239859368916 219.4512145275363 81.3848322999498Q220.76597088591168 81.01726600621046 221.74143528083533 80.29627058387558Q222.716899675759 79.5752751615407 223.25411195122422 78.48671344546648Q223.79132422668943 77.39815172939224 223.79132422668943 75.95616088472248V75.3058512881067Q223.79132422668943 73.86386044343693 223.25411195122422 72.7752987273627Q222.716899675759 71.68673701128847 221.74143528083533 70.96574158895359Q220.76597088591168 70.24474616661871 219.4512145275363 69.87717987287937Q218.13645816916093 69.50961357914001 216.5813700033406 69.50961357914001H210.75685796408627ZM240.78419672956247 85.34323854021974V65.91877363260943H245.0818949332841V85.34323854021974ZM256.4199013786287 85.34323854021974 266.1462709975777 65.91877363260943H271.0094558070522L280.73582542600116 85.34323854021974H276.01401226796486L274.1761807992681 81.58275261196331H262.66852837219767L260.8306969035009 85.34323854021974ZM264.3649881894562 78.1050099865833H272.47972098200955L270.2177745589982 73.35492249825938Q270.07640290755995 73.04390486509531 269.80779676982735 72.436006763911Q269.53919063209474 71.82810866272669 269.27058449436214 71.19193623125474Q269.00197835662954 70.55576379978278 268.7899208794722 70.08923735003668Q268.5778634023149 69.62271090029058 268.5495890720273 69.59443657000294H268.32339442972614Q268.06892545713737 70.1599231757558 267.7437706588295 70.8950557632345Q267.4186158605216 71.6301883507132 267.12173539250136 72.30877227761661Q266.8248549244811 72.98735620452003 266.6269346124676 73.38319682854701ZM292.07383187134576 85.34323854021974V65.91877363260943H298.74657381922935L303.1856436743892 75.89961222414719Q303.3835639864027 76.35200150874947 303.7087187847106 77.15781992194727Q304.0338735830185 77.96363833514508 304.387302711614 78.85427973920582Q304.74073184020955 79.74492114326655 305.02347514308593 80.48005373074525H305.22139545509947Q305.47586442768824 79.82974413412948 305.8151563911399 78.9815142255002Q306.15444835459164 78.13328431687094 306.49374031804336 77.31332873852931Q306.83303228149504 76.49337316018767 307.0592269237962 75.95616088472248L311.49829677895605 65.91877363260943H318.02966707540145V85.34323854021974H313.7319688716798V73.46801981940995Q313.7319688716798 72.98735620452003 313.7461060368236 72.39359526847954Q313.76024320196746 71.79983433243905 313.7885175322551 71.22021056154239Q313.81679186254274 70.64058679064571 313.84506619283036 70.21647183633107H313.6188715505292Q313.477499899091 70.64058679064571 313.2513052567899 71.2343477266862Q313.02511061448877 71.82810866272669 312.7989159721876 72.42186959876719Q312.57272132988646 73.01563053480767 312.374801017873 73.46801981940995L307.08750125408386 85.34323854021974H302.90290037151277L297.587326277436 73.46801981940995Q297.3328573048472 72.9025332136571 297.0925254974022 72.29463511247278Q296.8521936899573 71.68673701128847 296.6684105430876 71.13538757067946Q296.48462739621795 70.58403813007043 296.34325574477975 70.21647183633107H296.1170611024786Q296.1453354327662 70.55576379978278 296.15947259791005 71.10711324039181Q296.1736097630539 71.65846268100083 296.1877469281977 72.26636078218515Q296.2018840933415 72.87425888336946 296.2018840933415 73.46801981940995V85.34323854021974ZM343.0807237102526 85.68253050367146Q339.20714046084555 85.68253050367146 336.407981762369 84.50914579673429Q333.6088230638924 83.33576108979713 332.09614639350355 81.08795183192956Q330.58346972311466 78.840142574062 330.58346972311466 75.61686892127076Q330.58346972311466 72.39359526847954 332.09614639350355 70.1599231757558Q333.6088230638924 67.92625108303204 336.407981762369 66.75286637609489Q339.20714046084555 65.57948166915773 343.0807237102526 65.57948166915773Q346.95430695965956 65.57948166915773 349.7534656581362 66.75286637609489Q352.55262435661274 67.92625108303204 354.0653010270016 70.1599231757558Q355.5779776973905 72.39359526847954 355.5779776973905 75.61686892127076Q355.5779776973905 78.840142574062 354.0653010270016 81.08795183192956Q352.55262435661274 83.33576108979713 349.7534656581362 84.50914579673429Q346.95430695965956 85.68253050367146 343.0807237102526 85.68253050367146ZM343.0807237102526 82.09169055714086Q344.8337321880864 82.09169055714086 346.3039973630438 81.69584993311388Q347.7742625380012 81.30000930908689 348.86282425407546 80.53660239132054Q349.95138597014966 79.7731954735542 350.559284071334 78.61394793176086Q351.16718217251827 77.45470038996753 351.16718217251827 75.92788655443483V75.27757695781906Q351.16718217251827 73.75076312228637 350.559284071334 72.60565274563686Q349.95138597014966 71.46054236898733 348.86282425407546 70.69713545122099Q347.7742625380012 69.93372853345466 346.3039973630438 69.55202507457147Q344.8337321880864 69.17032161568831 343.0807237102526 69.17032161568831Q341.3277152324187 69.17032161568831 339.8574500574613 69.55202507457147Q338.3871848825039 69.93372853345466 337.2986231664297 70.69713545122099Q336.21006145035545 71.46054236898733 335.61630051431496 72.60565274563686Q335.02253957827446 73.75076312228637 335.02253957827446 75.27757695781906V75.92788655443483Q335.02253957827446 77.45470038996753 335.61630051431496 78.61394793176086Q336.21006145035545 79.7731954735542 337.2986231664297 80.53660239132054Q338.3871848825039 81.30000930908689 339.8574500574613 81.69584993311388Q341.3277152324187 82.09169055714086 343.0807237102526 82.09169055714086ZM368.1317803451037 85.34323854021974V65.91877363260943H372.17500957623656L382.8061577643901 76.12580686644833Q383.17372405812944 76.4368244996124 383.682662003307 76.9740367750776Q384.19159994848457 77.5112490505428 384.7429493890936 78.07673565629565Q385.2942988297026 78.6422222620485 385.6901394537296 79.09461154665078H385.91633409603077Q385.8880597657431 78.47257628032264 385.84564827031164 77.58193487626191Q385.8032367748802 76.69129347220118 385.8032367748802 76.12580686644833V65.91877363260943H389.931288996876V85.34323854021974H385.97288275660605L375.31346023816485 75.02310798523028Q374.55005332039855 74.28797539775158 373.71596057691306 73.39733399369084Q372.88186783342763 72.5066925896301 372.37292988825004 71.9694803141649H372.17500957623656Q372.2032839065242 72.33704660790426 372.2315582368118 73.25596234225263Q372.25983256709947 74.174878076601 372.25983256709947 75.36239994868198V85.34323854021974ZM403.3333215532185 85.34323854021974V65.91877363260943H413.6817264384956Q417.24429205473854 65.91877363260943 419.80311894577017 67.0356096789713Q422.36194583680185 68.15244572533318 423.7332508557525 70.31543199233782Q425.1045558747031 72.47841825934246 425.1045558747031 75.64514325155841Q425.1045558747031 78.78359391348671 423.7332508557525 80.94658018049135Q422.36194583680185 83.109566447496 419.80311894577017 84.22640249385788Q417.24429205473854 85.34323854021974 413.6817264384956 85.34323854021974ZM407.63101975694013 81.75239859368916H413.45553179619446Q415.0106199620148 81.75239859368916 416.3253763203902 81.3848322999498Q417.64013267876555 81.01726600621046 418.6155970736892 80.29627058387558Q419.59106146861285 79.5752751615407 420.12827374407806 78.48671344546648Q420.66548601954327 77.39815172939224 420.66548601954327 75.95616088472248V75.3058512881067Q420.66548601954327 73.86386044343693 420.12827374407806 72.7752987273627Q419.59106146861285 71.68673701128847 418.6155970736892 70.96574158895359Q417.64013267876555 70.24474616661871 416.3253763203902 69.87717987287937Q415.0106199620148 69.50961357914001 413.45553179619446 69.50961357914001H407.63101975694013Z" fill="#4F7268"/><rect x="444.46" y="73.90" width="55.15" height="3.49" fill="#4F7268"/></g></svg>